<svg width="42" height="30" viewBox="0 0 42 30" fill="none" xmlns="http://www.w3.org/2000/svg">
<path d="M21 28.5188C32.2183 28.5188 41.3125 22.4662 41.3125 15C41.3125 7.5338 32.2183 1.48125 21 1.48125C9.78172 1.48125 0.6875 7.5338 0.6875 15C0.6875 22.4662 9.78172 28.5188 21 28.5188Z" stroke="#FF0000" stroke-width="1.04167" stroke-linecap="round" stroke-linejoin="round"/>
<path d="M6.10828 6.17708C8.2072 7.17714 10.4532 7.83343 12.7604 8.12083C14.362 8.01301 15.9485 7.74323 17.4958 7.31563" stroke="#FF0000" stroke-width="1.04167" stroke-linecap="round" stroke-linejoin="round"/>
<path d="M36.5021 6.26458C34.9195 7.34064 33.0344 7.88265 31.1219 7.81146C27.648 7.81146 24.6375 5.52083 21.523 5.52083C18.7438 5.52083 14.0344 10.076 14.0344 10.9C14.0344 11.724 15.399 12.2125 16.5053 11.6708C17.1521 11.3552 19.9532 8.63542 22.2178 8.63542C24.4823 8.63542 31.8209 16.0687 32.4855 16.7667C33.5157 17.8479 31.5209 20.1771 30.2469 18.9021C28.973 17.6271 26.6948 15.6083 26.6948 15.6083" stroke="#FF0000" stroke-width="1.04167" stroke-linecap="round" stroke-linejoin="round"/>
<path d="M41.2083 13.6281C38.0908 13.9956 35.0705 14.9469 32.3052 16.4323M29.9375 18.6C30.9677 19.6802 28.9729 22.0094 27.6989 20.7354C26.425 19.4615 25.0104 18.1177 25.0104 18.1177" stroke="#FF0000" stroke-width="1.04167" stroke-linecap="round" stroke-linejoin="round"/>
<path d="M27.3906 20.4323C28.4198 21.5125 26.425 23.8417 25.151 22.5677C23.877 21.2937 23.0416 20.524 23.0416 20.524" stroke="#FF0000" stroke-width="1.04167" stroke-linecap="round" stroke-linejoin="round"/>
<path d="M21.2094 22.6208C21.4486 22.8998 21.7486 23.1202 22.0863 23.2651C22.424 23.4101 22.7904 23.4757 23.1574 23.457C23.5244 23.4383 23.8823 23.3357 24.2035 23.1572C24.5247 22.9787 24.8007 22.7289 25.0104 22.4271" stroke="#FF0000" stroke-width="1.04167" stroke-linecap="round" stroke-linejoin="round"/>
<path d="M21.2094 22.6208C21.7626 21.8948 21.7198 19.3063 18.873 19.8208C19.5417 18.551 18.9417 16.5438 16.3855 17.7271C16.3452 17.3576 16.1891 17.0104 15.9395 16.7351C15.6899 16.4598 15.3595 16.2706 14.9958 16.1945C14.632 16.1184 14.2535 16.1594 13.9145 16.3116C13.5755 16.4638 13.2933 16.7193 13.1084 17.0417C13.0565 16.7105 12.8963 16.4059 12.6528 16.1756C12.4093 15.9453 12.0963 15.8023 11.7627 15.7689C11.4292 15.7356 11.0941 15.8138 10.8098 15.9913C10.5255 16.1689 10.3081 16.4357 10.1917 16.75C9.62505 17.899 10.5001 19.975 12.3709 18.8083C12.1813 20.8333 13.2459 21.451 15.1667 20.6625C15.2698 22.6521 16.5907 22.4802 17.5344 22.0167C17.6263 22.4041 17.8308 22.7557 18.122 23.0273C18.4133 23.2988 18.7783 23.4782 19.1713 23.5428C19.5642 23.6073 19.9675 23.5543 20.3303 23.3902C20.6932 23.2262 20.9994 22.9585 21.2105 22.6208H21.2094Z" stroke="#FF0000" stroke-width="1.04167" stroke-linecap="round" stroke-linejoin="round"/>
<path d="M0.864624 13.2073C4.25395 13.462 7.51364 14.6178 10.3063 16.5552" stroke="#FF0000" stroke-width="1.04167" stroke-linecap="round" stroke-linejoin="round"/>
</svg>
